<svg xmlns="http://www.w3.org/2000/svg" width="329" height="354" viewBox="0 0 329 354">
<g>
<path d="M 233.11 335.99 C227.97,336.96 211.27,337.16 206.00,336.33 C198.48,335.15 187.04,332.31 175.65,328.81 C135.81,316.56 108.18,299.82 97.39,281.40 C94.97,277.28 94.48,276.93 92.11,277.68 C90.68,278.13 85.66,278.50 80.97,278.50 C73.35,278.50 71.74,278.15 65.74,275.20 C56.99,270.89 43.76,257.98 39.20,249.32 C33.65,238.75 31.00,228.76 31.00,218.39 C31.00,207.70 32.54,202.48 37.49,196.45 L 40.95 192.22 L 38.46 185.07 C32.62,168.35 30.72,158.32 30.61,143.50 C30.51,130.29 30.65,129.18 33.18,123.79 C34.65,120.65 38.07,115.92 40.77,113.29 C45.20,108.97 45.64,108.14 45.25,104.88 C44.44,98.17 49.99,91.21 56.90,90.29 C60.86,89.76 61.14,89.46 65.25,81.64 C69.88,72.82 81.10,60.41 88.81,55.59 C108.13,43.52 134.02,35.34 163.50,31.99 C175.73,30.60 212.69,29.52 211.70,30.57 C211.27,31.04 208.62,32.39 205.83,33.57 C203.03,34.76 201.19,36.00 201.73,36.33 C203.21,37.25 220.53,34.41 228.50,31.94 C236.56,29.44 246.02,24.89 247.93,22.58 C248.65,21.71 249.85,21.00 250.58,21.00 C252.39,21.00 254.32,28.57 253.70,33.23 C253.42,35.30 253.59,37.00 254.08,37.00 C255.15,37.00 259.69,29.98 261.64,25.32 C262.40,23.49 263.24,22.00 263.50,22.00 C264.42,22.00 268.66,29.58 271.05,35.50 C273.06,40.50 273.45,43.13 273.38,51.25 C273.33,56.61 273.47,61.00 273.70,61.00 C273.92,61.00 275.20,58.53 276.54,55.50 C277.88,52.47 279.32,50.00 279.74,50.00 C280.17,50.00 281.13,51.39 281.88,53.10 C288.49,68.03 287.20,84.94 278.72,94.58 C276.25,97.39 274.97,99.70 275.30,100.78 C275.58,101.72 276.94,105.65 278.33,109.50 C282.00,119.66 282.89,125.37 283.98,145.81 C284.52,155.89 285.18,164.48 285.45,164.92 C285.72,165.35 286.44,168.94 287.05,172.90 C287.83,177.94 289.46,182.54 292.50,188.30 C299.14,200.88 301.14,208.44 301.71,223.00 C302.27,237.53 300.94,245.45 295.76,258.34 C291.01,270.17 283.78,282.47 274.31,294.82 C269.81,300.69 264.55,308.67 262.63,312.53 C255.99,325.89 246.39,333.52 233.11,335.99 ZM 211.00 314.97 C224.75,319.67 228.66,318.98 236.21,310.53 C238.86,307.56 238.94,307.54 240.37,309.49 C241.81,311.46 241.83,311.46 243.99,309.51 C245.19,308.43 247.97,303.82 250.17,299.27 C252.37,294.72 254.44,291.00 254.77,291.00 C255.10,291.00 256.36,291.93 257.56,293.06 L 259.75 295.11 L 263.37 290.88 C267.53,286.02 275.70,274.36 279.05,268.50 C287.95,252.94 291.26,241.37 291.37,225.50 C291.49,209.33 289.27,201.39 280.07,185.00 C278.60,182.38 277.93,178.61 277.41,170.00 C276.72,158.73 276.64,158.44 273.49,155.45 C265.11,147.49 247.56,148.38 235.01,157.40 L 230.23 160.83 L 229.69 157.45 C227.96,146.84 238.30,138.00 252.44,138.00 C259.16,138.00 261.87,138.82 268.34,142.79 C270.46,144.08 272.41,144.92 272.69,144.65 C273.62,143.71 268.83,131.50 261.70,116.66 L 254.57 101.82 L 249.03 102.46 C245.99,102.82 241.02,103.56 238.00,104.11 C229.91,105.59 208.42,104.89 208.78,103.16 C209.01,102.08 207.56,101.98 201.28,102.64 C189.23,103.89 184.45,103.74 184.79,102.11 C185.02,101.05 184.21,100.86 181.29,101.31 C179.21,101.63 174.57,102.16 171.00,102.49 C161.89,103.33 153.38,104.75 139.70,107.69 C128.22,110.16 127.85,110.18 126.50,108.37 C125.15,106.56 125.04,106.58 123.49,108.76 C120.88,112.42 116.65,114.00 109.50,114.00 L 102.90 114.00 L 105.77 118.25 C111.56,126.84 114.69,135.83 115.62,146.50 C116.55,157.13 115.06,161.11 107.03,169.45 C103.30,173.33 99.52,177.94 98.62,179.70 C95.55,185.76 96.84,199.43 102.08,216.50 C103.27,220.35 104.45,224.91 104.71,226.62 C105.14,229.41 104.89,229.80 102.34,230.28 C100.78,230.57 98.60,231.10 97.50,231.44 C95.82,231.97 94.96,231.02 92.11,225.48 C83.31,208.34 70.87,198.00 59.07,198.00 C47.97,198.00 42.10,203.85 41.25,215.77 C40.43,227.16 44.56,239.20 53.19,250.64 C59.91,259.54 68.11,265.23 78.13,267.94 C82.27,269.06 83.26,268.98 87.28,267.20 C89.76,266.10 92.82,263.81 94.08,262.10 C95.34,260.40 96.69,259.00 97.07,259.00 C97.46,259.00 99.71,262.26 102.08,266.25 C107.75,275.80 121.27,289.31 132.34,296.50 C144.57,304.45 172.81,316.85 175.24,315.35 C175.77,315.02 175.88,312.24 175.49,308.89 C174.69,302.02 175.44,301.58 181.26,305.53 C187.29,309.63 200.97,316.13 202.10,315.44 C202.67,315.09 202.89,314.17 202.60,313.40 C202.30,312.63 202.16,312.02 202.28,312.04 C202.40,312.06 206.32,313.38 211.00,314.97 ZM 220.20 296.87 C196.75,301.87 171.73,286.56 157.54,258.52 C154.89,253.29 152.31,249.00 151.82,249.00 C151.33,249.00 149.81,249.74 148.43,250.64 C145.24,252.73 144.59,252.00 145.46,247.35 C145.91,244.98 147.52,242.26 149.83,239.95 C153.99,235.82 163.76,231.74 168.42,232.20 L 171.50 232.50 L 169.25 234.75 C168.01,235.99 167.00,237.39 167.00,237.87 C167.00,239.20 174.76,239.99 194.50,240.66 C215.20,241.36 230.69,239.76 249.94,234.92 C256.23,233.34 261.59,232.25 261.84,232.51 C262.10,232.77 261.60,234.67 260.72,236.74 C259.85,238.81 258.65,244.10 258.05,248.50 C254.39,275.51 241.18,292.40 220.20,296.87 ZM 149.19 213.47 C148.90,213.76 146.47,214.00 143.78,214.00 C139.08,214.00 138.84,213.86 137.33,210.26 C135.16,205.05 135.95,193.93 138.91,188.15 C144.18,177.87 154.50,171.05 166.05,170.23 C180.46,169.20 190.17,176.88 194.07,192.38 C196.73,202.92 188.69,211.12 174.22,212.63 C168.48,213.24 168.15,213.14 165.22,210.07 C160.46,205.09 158.61,200.31 158.19,191.89 C157.90,186.15 158.21,183.49 159.47,181.05 C161.14,177.83 161.14,177.82 158.84,178.55 C154.91,179.80 150.91,183.32 148.22,187.90 C144.92,193.52 144.70,202.80 147.74,208.93 C148.83,211.14 149.48,213.18 149.19,213.47 ZM 268.50 196.10 C266.85,197.02 262.69,198.07 259.25,198.44 C253.44,199.05 252.83,198.92 250.44,196.53 C246.04,192.13 243.80,185.64 243.83,177.39 C243.85,172.35 243.49,170.00 242.68,170.01 C240.16,170.02 234.00,182.16 234.00,187.13 C234.00,188.16 233.55,189.00 233.00,189.00 C231.62,189.00 231.74,177.08 233.16,172.90 C236.60,162.80 243.95,157.00 253.31,157.00 C262.00,157.00 269.25,162.88 273.12,173.07 C276.76,182.66 274.77,192.61 268.50,196.10 ZM 194.32 258.25 C196.18,260.73 197.00,261.00 202.52,261.00 C210.24,261.00 227.92,258.54 234.50,256.54 C242.63,254.08 245.56,251.79 246.80,246.89 C247.40,244.51 247.74,242.40 247.54,242.21 C247.34,242.01 242.98,242.75 237.84,243.85 C218.74,247.94 188.53,249.09 171.11,246.38 L 166.72 245.70 L 167.42 249.44 C169.08,258.26 170.96,259.57 181.75,259.41 C186.39,259.34 188.54,258.82 190.12,257.41 C192.23,255.52 192.27,255.53 194.32,258.25 ZM 133.37 177.15 C130.59,180.22 128.73,179.54 129.54,175.75 C133.18,158.85 158.24,147.61 179.07,153.55 C185.03,155.24 190.41,160.14 191.27,164.63 C191.71,166.96 191.52,167.13 189.13,166.57 C182.19,164.95 165.31,164.84 158.09,166.38 C150.02,168.10 136.05,174.18 133.37,177.15 ZM 238.24 231.76 C233.29,233.84 225.28,235.02 221.00,234.31 C214.21,233.17 203.00,228.52 203.00,226.84 C203.00,225.71 207.50,225.82 213.00,227.09 C217.94,228.23 228.31,226.84 233.16,224.39 C236.86,222.51 240.00,218.24 240.00,215.06 C240.00,212.20 235.43,204.24 231.22,199.76 C225.25,193.41 234.12,196.82 242.28,204.01 C248.07,209.11 250.00,212.60 250.00,217.95 C250.00,223.10 245.08,228.88 238.24,231.76 ZM 81.41 249.15 C79.76,251.82 69.41,247.80 66.15,243.21 C63.46,239.44 63.42,235.46 66.02,231.21 C68.34,227.39 67.79,225.69 62.95,221.61 C58.64,217.98 56.44,218.27 54.07,222.75 C52.38,225.95 52.07,226.17 51.93,224.25 C51.46,217.42 51.78,215.37 53.57,213.57 C56.49,210.65 62.26,211.60 68.03,215.93 C77.25,222.86 81.28,231.60 77.53,236.56 C75.27,239.55 75.72,242.36 78.96,245.47 C80.59,247.03 81.69,248.69 81.41,249.15 ZM 203.63 289.47 C210.82,291.28 217.29,290.79 223.87,287.96 C230.40,285.15 232.77,282.63 230.95,280.45 C228.41,277.38 222.21,275.00 216.79,275.02 C210.18,275.03 208.39,276.00 209.86,278.74 C211.38,281.57 210.37,282.03 206.69,280.19 C200.70,277.20 186.00,277.76 186.00,280.98 C186.00,282.34 197.70,287.98 203.63,289.47 ZM 121.00 81.27 C121.00,84.12 122.66,82.43 123.38,78.84 C124.40,73.74 130.01,65.95 134.90,62.85 C137.37,61.28 139.76,60.00 140.22,60.00 C140.67,60.00 140.13,61.78 139.02,63.96 C135.75,70.37 136.64,70.55 142.91,64.74 C149.28,58.84 155.06,55.25 162.68,52.44 C170.95,49.40 170.25,48.70 159.62,49.35 C144.04,50.32 131.92,55.61 126.51,63.82 C124.18,67.36 121.00,77.43 121.00,81.27 ZM 240.46 77.93 C237.86,80.72 236.13,83.00 236.61,82.99 C237.10,82.99 239.76,81.69 242.52,80.10 C248.35,76.76 254.99,69.90 257.88,64.23 C260.24,59.60 262.52,51.19 261.65,50.32 C261.32,49.99 258.45,52.42 255.27,55.72 C249.18,62.04 238.00,69.85 229.22,73.92 C226.35,75.25 224.00,76.71 224.00,77.17 C224.00,78.45 225.13,78.22 235.06,74.98 C240.14,73.32 244.50,72.17 244.75,72.42 C245.00,72.67 243.07,75.15 240.46,77.93 ZM 175.00 87.01 C175.00,88.40 175.63,88.01 185.50,80.49 C189.90,77.14 196.76,72.21 200.74,69.53 C204.73,66.85 207.80,64.46 207.56,64.23 C206.96,63.63 200.59,65.78 193.34,69.03 C184.49,73.00 175.00,82.31 175.00,87.01 ZM 164.00 80.65 C164.00,81.40 167.26,79.40 171.25,76.20 C175.24,72.99 180.24,69.07 182.37,67.48 C187.71,63.48 185.38,63.24 177.55,66.98 C171.14,70.04 164.00,77.24 164.00,80.65 ZM 166.80 191.25 C168.59,193.32 169.20,193.40 170.80,191.80 C173.83,188.77 171.30,180.00 167.40,180.00 C164.03,180.00 163.62,187.58 166.80,191.25 ZM 251.04 177.81 C253.84,180.82 256.00,179.18 256.00,174.07 C256.00,169.60 254.05,166.65 251.43,167.15 C248.48,167.71 248.22,174.78 251.04,177.81 Z" fill="rgb(17,17,17)"/>
<path d="M 121.00 81.27 C121.00,79.67 121.55,76.99 122.36,74.16 C122.35,74.20 122.35,74.25 122.34,74.30 C121.94,76.74 122.12,78.00 122.87,78.00 C123.19,78.00 123.49,77.86 123.69,77.63 C123.56,78.05 123.46,78.45 123.38,78.84 C122.66,82.43 121.00,84.12 121.00,81.27 ZM 125.85 64.95 C126.08,64.53 126.30,64.15 126.51,63.82 C131.88,55.67 143.88,50.39 159.30,49.37 C143.20,50.45 131.53,55.99 125.85,64.95 ZM 124.00 76.72 C124.09,75.32 125.75,72.55 127.91,69.79 C126.23,72.08 124.83,74.53 124.00,76.72 Z" fill="rgb(83,83,83)"/>
<path d="M 0.00 177.00 L 0.00 0.00 L 164.50 0.00 L 329.00 0.00 L 329.00 177.00 L 329.00 354.00 L 164.50 354.00 L 0.00 354.00 L 0.00 177.00 ZM 233.11 335.99 C246.39,333.52 255.99,325.89 262.63,312.53 C264.55,308.67 269.81,300.69 274.31,294.82 C283.78,282.47 291.01,270.17 295.76,258.34 C300.94,245.45 302.27,237.53 301.71,223.00 C301.14,208.44 299.14,200.88 292.50,188.30 C289.46,182.54 287.83,177.94 287.05,172.90 C286.44,168.94 285.72,165.35 285.45,164.92 C285.18,164.48 284.52,155.89 283.98,145.81 C282.89,125.37 282.00,119.66 278.33,109.50 C276.94,105.65 275.58,101.72 275.30,100.78 C274.97,99.70 276.25,97.39 278.72,94.58 C287.20,84.94 288.49,68.03 281.88,53.10 C281.13,51.39 280.17,50.00 279.74,50.00 C279.32,50.00 277.88,52.47 276.54,55.50 C275.20,58.53 273.92,61.00 273.70,61.00 C273.47,61.00 273.33,56.61 273.38,51.25 C273.45,43.13 273.06,40.50 271.05,35.50 C268.66,29.58 264.42,22.00 263.50,22.00 C263.24,22.00 262.40,23.49 261.64,25.32 C259.69,29.98 255.15,37.00 254.08,37.00 C253.59,37.00 253.42,35.30 253.70,33.23 C254.32,28.57 252.39,21.00 250.58,21.00 C249.85,21.00 248.65,21.71 247.93,22.58 C246.02,24.89 236.56,29.44 228.50,31.94 C220.53,34.41 203.21,37.25 201.73,36.33 C201.19,36.00 203.03,34.76 205.83,33.57 C208.62,32.39 211.27,31.04 211.70,30.57 C212.69,29.52 175.73,30.60 163.50,31.99 C134.02,35.34 108.13,43.52 88.81,55.59 C81.10,60.41 69.88,72.82 65.25,81.64 C61.14,89.46 60.86,89.76 56.90,90.29 C49.99,91.21 44.44,98.17 45.25,104.88 C45.64,108.14 45.20,108.97 40.77,113.29 C38.07,115.92 34.65,120.65 33.18,123.79 C30.65,129.18 30.51,130.29 30.61,143.50 C30.72,158.32 32.62,168.35 38.46,185.07 L 40.95 192.22 L 37.49 196.45 C32.54,202.48 31.00,207.70 31.00,218.39 C31.00,228.76 33.65,238.75 39.20,249.32 C43.76,257.98 56.99,270.89 65.74,275.20 C71.74,278.15 73.35,278.50 80.97,278.50 C85.66,278.50 90.68,278.13 92.11,277.68 C94.48,276.93 94.97,277.28 97.39,281.40 C108.18,299.82 135.81,316.56 175.65,328.81 C187.04,332.31 198.48,335.15 206.00,336.33 C211.27,337.16 227.97,336.96 233.11,335.99 ZM 211.00 314.97 C206.32,313.38 202.40,312.06 202.28,312.04 C202.16,312.02 202.30,312.63 202.60,313.40 C202.89,314.17 202.67,315.09 202.10,315.44 C200.97,316.13 187.29,309.63 181.26,305.53 C175.44,301.58 174.69,302.02 175.49,308.89 C175.88,312.24 175.77,315.02 175.24,315.35 C172.81,316.85 144.57,304.45 132.34,296.50 C121.27,289.31 107.75,275.80 102.08,266.25 C99.71,262.26 97.46,259.00 97.07,259.00 C96.69,259.00 95.34,260.40 94.08,262.10 C92.82,263.81 89.76,266.10 87.28,267.20 C83.26,268.98 82.27,269.06 78.13,267.94 C68.11,265.23 59.91,259.54 53.19,250.64 C44.56,239.20 40.43,227.16 41.25,215.77 C42.10,203.85 47.97,198.00 59.07,198.00 C70.87,198.00 83.31,208.34 92.11,225.48 C94.96,231.02 95.82,231.97 97.50,231.44 C98.60,231.10 100.78,230.57 102.34,230.28 C104.89,229.80 105.14,229.41 104.71,226.62 C104.45,224.91 103.27,220.35 102.08,216.50 C96.84,199.43 95.55,185.76 98.62,179.70 C99.52,177.94 103.30,173.33 107.03,169.45 C115.06,161.11 116.55,157.13 115.62,146.50 C114.69,135.83 111.56,126.84 105.77,118.25 L 102.90 114.00 L 109.50 114.00 C116.65,114.00 120.88,112.42 123.49,108.76 C125.04,106.58 125.15,106.56 126.50,108.37 C127.85,110.18 128.22,110.16 139.70,107.69 C153.38,104.75 161.89,103.33 171.00,102.49 C174.57,102.16 179.21,101.63 181.29,101.31 C184.21,100.86 185.02,101.05 184.79,102.11 C184.45,103.74 189.23,103.89 201.28,102.64 C207.56,101.98 209.01,102.08 208.78,103.16 C208.42,104.89 229.91,105.59 238.00,104.11 C241.02,103.56 245.99,102.82 249.03,102.46 L 254.57 101.82 L 261.70 116.66 C268.83,131.50 273.62,143.71 272.69,144.65 C272.41,144.92 270.46,144.08 268.34,142.79 C261.87,138.82 259.16,138.00 252.44,138.00 C238.30,138.00 227.96,146.84 229.69,157.45 L 230.23 160.83 L 235.01 157.40 C247.56,148.38 265.11,147.49 273.49,155.45 C276.64,158.44 276.72,158.73 277.41,170.00 C277.93,178.61 278.60,182.38 280.07,185.00 C289.27,201.39 291.49,209.33 291.37,225.50 C291.26,241.37 287.95,252.94 279.05,268.50 C275.70,274.36 267.53,286.02 263.37,290.88 L 259.75 295.11 L 257.56 293.06 C256.36,291.93 255.10,291.00 254.77,291.00 C254.44,291.00 252.37,294.72 250.17,299.27 C247.97,303.82 245.19,308.43 243.99,309.51 C241.83,311.46 241.81,311.46 240.37,309.49 C238.94,307.54 238.86,307.56 236.21,310.53 C228.66,318.98 224.75,319.67 211.00,314.97 ZM 220.20 296.87 C241.18,292.40 254.39,275.51 258.05,248.50 C258.65,244.10 259.85,238.81 260.72,236.74 C261.60,234.67 262.10,232.77 261.84,232.51 C261.59,232.25 256.23,233.34 249.94,234.92 C230.69,239.76 215.20,241.36 194.50,240.66 C174.76,239.99 167.00,239.20 167.00,237.87 C167.00,237.39 168.01,235.99 169.25,234.75 L 171.50 232.50 L 168.42 232.20 C163.76,231.74 153.99,235.82 149.83,239.95 C147.52,242.26 145.91,244.98 145.46,247.35 C144.59,252.00 145.24,252.73 148.43,250.64 C149.81,249.74 151.33,249.00 151.82,249.00 C152.31,249.00 154.89,253.29 157.54,258.52 C171.73,286.56 196.75,301.87 220.20,296.87 ZM 81.41 249.15 C81.69,248.69 80.59,247.03 78.96,245.47 C75.72,242.36 75.27,239.55 77.53,236.56 C81.28,231.60 77.25,222.86 68.03,215.93 C62.26,211.60 56.49,210.65 53.57,213.57 C51.78,215.37 51.46,217.42 51.93,224.25 C52.07,226.17 52.38,225.95 54.07,222.75 C56.44,218.27 58.64,217.98 62.95,221.61 C67.79,225.69 68.34,227.39 66.02,231.21 C63.42,235.46 63.46,239.44 66.15,243.21 C69.41,247.80 79.76,251.82 81.41,249.15 ZM 238.24 231.76 C245.08,228.88 250.00,223.10 250.00,217.95 C250.00,212.60 248.07,209.11 242.28,204.01 C234.12,196.82 225.25,193.41 231.22,199.76 C235.43,204.24 240.00,212.20 240.00,215.06 C240.00,218.24 236.86,222.51 233.16,224.39 C228.31,226.84 217.94,228.23 213.00,227.09 C207.50,225.82 203.00,225.71 203.00,226.84 C203.00,228.52 214.21,233.17 221.00,234.31 C225.28,235.02 233.29,233.84 238.24,231.76 ZM 149.19 213.47 C149.48,213.18 148.83,211.14 147.74,208.93 C144.70,202.80 144.92,193.52 148.22,187.90 C150.91,183.32 154.91,179.80 158.84,178.55 C161.14,177.82 161.14,177.83 159.47,181.05 C158.21,183.49 157.90,186.15 158.19,191.89 C158.61,200.31 160.46,205.09 165.22,210.07 C168.15,213.14 168.48,213.24 174.22,212.63 C188.69,211.12 196.73,202.92 194.07,192.38 C190.17,176.88 180.46,169.20 166.05,170.23 C154.50,171.05 144.18,177.87 138.91,188.15 C135.95,193.93 135.16,205.05 137.33,210.26 C138.84,213.86 139.08,214.00 143.78,214.00 C146.47,214.00 148.90,213.76 149.19,213.47 ZM 268.50 196.10 C274.77,192.61 276.76,182.66 273.12,173.07 C269.25,162.88 262.00,157.00 253.31,157.00 C243.95,157.00 236.60,162.80 233.16,172.90 C231.74,177.08 231.62,189.00 233.00,189.00 C233.55,189.00 234.00,188.16 234.00,187.13 C234.00,182.16 240.16,170.02 242.68,170.01 C243.49,170.00 243.85,172.35 243.83,177.39 C243.80,185.64 246.04,192.13 250.44,196.53 C252.83,198.92 253.44,199.05 259.25,198.44 C262.69,198.07 266.85,197.02 268.50,196.10 ZM 133.37 177.15 C136.05,174.18 150.02,168.10 158.09,166.38 C165.31,164.84 182.19,164.95 189.13,166.57 C191.52,167.13 191.71,166.96 191.27,164.63 C190.41,160.14 185.03,155.24 179.07,153.55 C158.24,147.61 133.18,158.85 129.54,175.75 C128.73,179.54 130.59,180.22 133.37,177.15 ZM 175.00 87.01 C175.00,82.31 184.49,73.00 193.34,69.03 C200.59,65.78 206.96,63.63 207.56,64.23 C207.80,64.46 204.73,66.85 200.74,69.53 C196.76,72.21 189.90,77.14 185.50,80.49 C175.63,88.01 175.00,88.40 175.00,87.01 ZM 240.46 77.93 C243.07,75.15 245.00,72.67 244.75,72.42 C244.50,72.17 240.14,73.32 235.06,74.98 C225.13,78.22 224.00,78.45 224.00,77.17 C224.00,76.71 226.35,75.25 229.22,73.92 C238.00,69.85 249.18,62.04 255.27,55.72 C258.45,52.42 261.32,49.99 261.65,50.32 C262.52,51.19 260.24,59.60 257.88,64.23 C254.99,69.90 248.35,76.76 242.52,80.10 C239.76,81.69 237.10,82.99 236.61,82.99 C236.13,83.00 237.86,80.72 240.46,77.93 ZM 164.00 80.65 C164.00,77.24 171.14,70.04 177.55,66.98 C185.38,63.24 187.71,63.48 182.37,67.48 C180.24,69.07 175.24,72.99 171.25,76.20 C167.26,79.40 164.00,81.40 164.00,80.65 ZM 122.34 74.30 C124.69,59.79 138.36,50.67 159.70,49.35 C170.25,48.70 170.93,49.41 162.68,52.44 C155.06,55.25 149.28,58.84 142.91,64.74 C136.64,70.55 135.75,70.37 139.02,63.96 C140.13,61.78 140.67,60.00 140.22,60.00 C139.76,60.00 137.37,61.28 134.90,62.85 C130.73,65.49 124.00,74.13 124.00,76.84 C124.00,77.48 123.49,78.00 122.87,78.00 C122.12,78.00 121.94,76.74 122.34,74.30 ZM 203.63 289.47 C197.70,287.98 186.00,282.34 186.00,280.98 C186.00,277.76 200.70,277.20 206.69,280.19 C210.37,282.03 211.38,281.57 209.86,278.74 C208.39,276.00 210.18,275.03 216.79,275.02 C222.21,275.00 228.41,277.38 230.95,280.45 C232.77,282.63 230.40,285.15 223.87,287.96 C217.29,290.79 210.82,291.28 203.63,289.47 ZM 194.32 258.25 C192.27,255.53 192.23,255.52 190.12,257.41 C188.54,258.82 186.39,259.34 181.75,259.41 C170.96,259.57 169.08,258.26 167.42,249.44 L 166.72 245.70 L 171.11 246.38 C188.53,249.09 218.74,247.94 237.84,243.85 C242.98,242.75 247.34,242.01 247.54,242.21 C247.74,242.40 247.40,244.51 246.80,246.89 C245.56,251.79 242.63,254.08 234.50,256.54 C227.92,258.54 210.24,261.00 202.52,261.00 C197.00,261.00 196.18,260.73 194.32,258.25 ZM 166.80 191.25 C163.62,187.58 164.03,180.00 167.40,180.00 C171.30,180.00 173.83,188.77 170.80,191.80 C169.20,193.40 168.59,193.32 166.80,191.25 ZM 251.04 177.81 C248.22,174.78 248.48,167.71 251.43,167.15 C254.05,166.65 256.00,169.60 256.00,174.07 C256.00,179.18 253.84,180.82 251.04,177.81 Z" fill="rgb(253,253,253)"/>
</g>
</svg>